<svg width="195" height="142" viewBox="0 0 195 142" fill="none" xmlns="http://www.w3.org/2000/svg">
<path fill-rule="evenodd" clip-rule="evenodd" d="M96.3797 0.30279C95.7703 0.708909 89.904 8.6721 86.7978 13.3088C83.4756 18.2681 79.7168 24.5654 76.7084 30.2116L74.406 34.533L70.7014 32.2046C64.0755 28.0408 58.7258 25.0821 51.3315 21.4924C38.1638 15.0993 38.1428 15.0971 37.4409 20.0221C36.2748 28.2087 36.049 32.3717 36.0486 45.6958V59.6573L33.9472 59.6633C22.3659 59.6975 1.46346 61.1549 0.439506 61.9998C-0.536688 62.8052 0.104811 64.6857 4.09173 72.7108C9.03651 82.6632 15.0477 92.5551 21.0611 100.634C22.5088 102.578 22.8503 102.152 17.1617 105.5C12.5959 108.187 6.77121 112.319 3.0353 115.52C0.736376 117.489 0.109396 118.251 0.0169341 119.188C-0.0934847 120.304 0.198037 120.594 5.17491 124.315C8.07598 126.484 12.0832 129.264 14.0795 130.492C22.2207 135.501 32.2688 139.614 40.2514 141.207C45.1408 142.183 56.5292 142.177 61.0744 141.197C72.6668 138.696 83.4928 132.897 93.1279 124.028C94.362 122.891 95.501 121.962 95.6592 121.962C95.817 121.962 97.4274 123.055 99.2376 124.391C104.756 128.463 109.518 131.377 115.494 134.337C127.54 140.304 139.117 142.797 150.052 141.778C164.959 140.39 177.981 134.298 191.839 122.23C195.406 119.123 195.366 118.728 191.118 115.096C186.385 111.049 181.465 107.514 176.756 104.778C174.502 103.468 172.72 102.22 172.796 102.004C172.872 101.788 174.502 99.4174 176.418 96.736C182.594 88.0939 187.095 80.5049 191.959 70.5321C195.438 63.399 195.693 62.2452 193.929 61.5986C192.051 60.9098 172.883 59.6774 163.852 59.6645L158.694 59.6573V44.9359C158.694 33.059 158.556 29.0035 157.981 23.9462C157.237 17.4057 156.862 16.3466 155.291 16.3496C154.233 16.3511 144.873 20.5548 138.533 23.8755C132.933 26.8084 129.253 28.9328 123.842 32.3565C121.855 33.6144 120.178 34.5873 120.116 34.5186C120.054 34.4498 119.382 33.16 118.623 31.6526C115.091 24.6369 108.282 13.6443 102.554 5.71074C98.5873 0.216172 97.6891 -0.570232 96.3797 0.30279ZM97.9955 5.99567C98.2802 6.36152 100.551 9.65226 103.041 13.3088C112.547 27.2654 118.272 38.1486 122.24 49.8078C124.982 57.8641 126.017 63.1566 126.291 70.5096C126.687 81.1983 124.82 89.3427 120.003 97.9361L118.245 101.074L114.59 103.015C112.58 104.083 109.301 106.035 107.305 107.353C104.197 109.405 102.404 110.77 96.4222 115.636C95.5591 116.338 95.5526 116.335 91.9752 113.346C90.0049 111.699 86.7202 109.193 84.6765 107.777C80.3484 104.778 77.1959 101.148 74.1317 95.6343C62.1125 74.0086 68.7865 44.8212 93.6731 10.1746C95.5866 7.51035 97.2256 5.33083 97.3151 5.33083C97.4048 5.33083 97.7109 5.62982 97.9955 5.99567ZM49.0391 24.8333C53.0317 26.7822 57.7599 29.2003 59.5461 30.2066C63.0871 32.2015 72.5365 38.0091 72.5365 38.1903C72.5365 38.2523 72.0368 39.4748 71.4258 40.9071C64.0614 58.1703 62.4181 75.1699 66.8181 88.5665C68.0086 92.1908 69.5736 95.6749 71.3666 98.6925C72.0188 99.7893 72.467 100.687 72.3631 100.687C72.2591 100.687 70.8409 100.16 69.2114 99.5165C65.0112 97.8575 60.0535 96.6061 55.5725 96.0738C53.4501 95.8219 51.4935 95.4493 51.2245 95.246C50.9559 95.0432 49.7234 92.8655 48.4858 90.4079C44.5398 82.5693 42.043 73.4444 40.5907 61.5568C39.3226 51.1785 39.8877 21.2838 41.3514 21.288C41.5872 21.2888 45.0464 22.884 49.0391 24.8333ZM154.047 23.6613C155.282 36.1457 155.307 52.7814 154.107 62.6965C152.673 74.5446 149.627 84.9244 145.445 92.2068L143.879 94.9334L140.971 95.1773C136.589 95.5442 131.269 96.472 127.808 97.4726C126.106 97.965 124.658 98.3134 124.592 98.2473C124.525 98.1812 125.058 96.7797 125.776 95.1332C128.443 89.0167 129.655 84.1406 130.219 77.256C131.053 67.0814 128.541 53.9108 123.498 42.0217C122.787 40.3463 122.206 38.7883 122.206 38.56C122.206 38.0916 127.938 34.3848 134.241 30.7773C138.752 28.1958 152.685 21.2903 153.388 21.288C153.629 21.2872 153.914 22.3111 154.047 23.6613ZM37.2522 67.0654C38.3434 75.1092 40.9059 83.6338 44.4932 91.1552C45.6302 93.5395 46.501 95.5496 46.4276 95.6221C46.3546 95.6951 44.8489 95.9283 43.0818 96.1411C38.926 96.6406 32.5871 98.2005 29.0659 99.5902C27.5368 100.194 26.2217 100.687 26.1434 100.687C26.0647 100.687 24.8856 99.1913 23.5228 97.3628C17.8544 89.7587 11.2101 78.8166 6.97103 70.1047L4.5678 65.1659L5.49967 64.9148C6.01241 64.7765 9.57103 64.4714 13.4078 64.237C23.5411 63.6178 24.3794 63.5881 30.8784 63.6185L36.7883 63.6463L37.2522 67.0654ZM185.43 64.5915C187.947 64.8285 190.064 65.0793 190.134 65.1488C190.329 65.3426 185.458 74.8865 182.662 79.7922C178.485 87.1176 169.555 100.307 168.771 100.307C168.598 100.307 167.146 99.7893 165.543 99.1564C161.784 97.6717 156.187 96.2319 151.934 95.6559C150.083 95.4056 148.569 95.0781 148.569 94.9284C148.569 94.7787 149.427 92.9111 150.476 90.7779C153.765 84.0912 156.863 73.4482 157.588 66.3497L157.855 63.734L169.354 63.9475C175.679 64.0649 182.913 64.3548 185.43 64.5915ZM153.536 99.7411C161.557 101.299 170.648 105.201 178.586 110.495C182.764 113.28 189.147 118.244 189.34 118.857C189.466 119.259 183.296 124.163 178.981 127.09C171.445 132.204 163.961 135.462 155.694 137.228C150.114 138.42 140.494 138.409 134.814 137.205C123.865 134.885 112.703 129.582 101.776 121.512C99.9892 120.192 98.5316 119.027 98.5365 118.922C98.5583 118.468 105.437 113.154 109.677 110.316C118.955 104.105 128.018 100.497 138.062 99.0181C140.436 98.6686 150.414 99.1347 153.536 99.7411ZM58.973 100.747C69.7829 102.867 80.1421 108.358 91.2145 117.839L92.8334 119.226L89.4669 122.139C83.1535 127.604 74.8125 132.611 67.9517 135.054C51.7037 140.839 34.0156 138.157 16.2118 127.21C11.7794 124.485 4.91701 119.558 4.93153 119.112C4.94834 118.584 9.98634 114.75 15.2257 111.278C24.6583 105.028 34.7034 101.016 43.567 99.9584C47.4401 99.496 54.4148 99.8531 58.973 100.747Z" fill="url(#paint0_linear_2001_48)" fill-opacity="0.8"/>
<defs>
<linearGradient id="paint0_linear_2001_48" x1="29.8016" y1="11.7992" x2="194.238" y2="127.599" gradientUnits="userSpaceOnUse">
<stop stop-color="#FBA80E"/>
<stop offset="1" stop-color="#985707"/>
</linearGradient>
</defs>
</svg>
