<svg width="55" height="55" viewBox="0 0 55 55" fill="none" xmlns="http://www.w3.org/2000/svg">
<g clip-path="url(#clip0_251_757)">
<path d="M27.426 0H27.614C27.7136 0.0264974 27.812 0.0562174 27.9094 0.0891602C28.7419 0.366309 28.7559 1.5501 28.077 1.98301C27.6043 2.28486 26.8728 2.1291 26.5946 1.63818C26.1864 0.917383 26.5967 0.148242 27.426 0Z" fill="url(#paint0_linear_251_757)"/>
<path d="M33.7887 13.3526C35.4688 13.9334 37.1571 14.5159 38.8536 15.1003C39.7409 15.4054 39.7903 16.6332 38.9847 17.0683C38.9596 17.0819 38.6954 17.1761 38.1919 17.3508C36.736 17.8578 35.2786 18.3602 33.8198 18.8579C33.8089 18.8618 33.7988 18.8678 33.7902 18.8755C33.7815 18.8833 33.7745 18.8927 33.7695 18.9032C33.7645 18.9136 33.7617 18.925 33.7611 18.9366C33.7605 18.9482 33.7622 18.9598 33.7661 18.9707C34.1206 19.9733 34.4705 20.9752 34.8156 21.9764C35.1529 22.9561 34.4235 23.7875 33.4095 23.4373C32.4004 23.0893 31.3885 22.7348 30.3737 22.3739C30.3107 22.3517 30.2685 22.3717 30.247 22.434C29.7106 24.0067 29.1649 25.5904 28.6099 27.1853C28.496 27.5133 28.3814 27.7374 28.2661 27.8577C27.8955 28.2466 27.1984 28.267 26.7966 27.9115C26.662 27.7919 26.542 27.5817 26.4367 27.2809C25.876 25.681 25.3188 24.064 24.7652 22.4297C24.7611 22.4178 24.7547 22.4068 24.7463 22.3974C24.738 22.3879 24.7279 22.3802 24.7166 22.3747C24.7053 22.3693 24.6931 22.3661 24.6806 22.3654C24.6681 22.3647 24.6556 22.3664 24.6439 22.3706C23.5847 22.7488 22.5205 23.1215 21.4513 23.4889C20.8862 23.6833 20.1644 23.2268 20.0967 22.6209C20.0759 22.4362 20.1264 22.1687 20.2482 21.8185C20.5661 20.9047 20.8956 19.9644 21.2364 18.9976C21.2416 18.9829 21.2438 18.9673 21.2429 18.9517C21.242 18.9361 21.238 18.9208 21.2311 18.9067C21.2242 18.8926 21.2146 18.88 21.2028 18.8696C21.191 18.8592 21.1772 18.8512 21.1623 18.8461C19.4679 18.266 17.7599 17.677 16.0383 17.079C15.8836 17.0253 15.7508 16.9125 15.6398 16.7407C15.2101 16.0746 15.5151 15.3377 16.2338 15.0853C17.8645 14.5116 19.5112 13.9427 21.1741 13.3783C21.188 13.3738 21.2008 13.3665 21.2119 13.3568C21.2229 13.3472 21.2318 13.3354 21.2382 13.3222C21.2446 13.309 21.2484 13.2946 21.2492 13.2799C21.25 13.2652 21.2478 13.2505 21.2429 13.2366C20.8734 12.2089 20.5146 11.1826 20.1665 10.1578C19.9366 9.48001 20.3115 8.81292 21.0119 8.72483C21.2218 8.69833 21.4932 8.74381 21.8262 8.86126C22.7701 9.19355 23.715 9.52584 24.661 9.85813C24.6796 9.86467 24.6999 9.86359 24.7176 9.85513C24.7354 9.84667 24.749 9.83152 24.7556 9.81301C25.3299 8.1401 25.9089 6.46539 26.4926 4.78889C26.7987 3.91126 27.9664 3.79846 28.4283 4.57835C28.4634 4.63779 28.5784 4.94967 28.7732 5.51399C29.2687 6.9513 29.7643 8.38896 30.2599 9.82698C30.2728 9.86422 30.2982 9.87639 30.3361 9.8635C31.3201 9.52047 32.2987 9.17779 33.272 8.83548C34.3935 8.44231 35.1884 9.17063 34.7942 10.3125C34.4533 11.3001 34.1063 12.2887 33.7532 13.2784C33.7507 13.2857 33.7495 13.2934 33.7499 13.3011C33.7503 13.3088 33.7522 13.3163 33.7555 13.3232C33.7588 13.3302 33.7635 13.3363 33.7691 13.3413C33.7748 13.3464 33.7815 13.3502 33.7887 13.3526ZM24.9575 12.2182C24.2844 12.0155 23.6273 11.7856 22.9863 11.5285C22.9786 11.5253 22.9701 11.5243 22.9618 11.5259C22.9535 11.5274 22.9459 11.5313 22.9398 11.5372C22.9337 11.543 22.9295 11.5505 22.9277 11.5587C22.9258 11.5669 22.9264 11.5755 22.9294 11.5833C23.169 12.2536 23.777 13.5567 23.69 14.1797C23.6312 14.5979 23.3591 14.8908 22.8735 15.0584C21.8888 15.3979 20.9102 15.7345 19.9377 16.0682C19.9278 16.0712 19.9192 16.0774 19.9131 16.0857C19.9069 16.094 19.9036 16.104 19.9036 16.1144C19.9036 16.1247 19.9069 16.1348 19.9131 16.1431C19.9192 16.1514 19.9278 16.1575 19.9377 16.1606C20.9346 16.4972 21.925 16.838 22.909 17.1832C23.7705 17.4862 23.8156 18.1232 23.5417 18.9095C23.3405 19.4874 23.1385 20.0589 22.9359 20.624C22.9329 20.6323 22.9324 20.6414 22.9344 20.65C22.9364 20.6587 22.9408 20.6666 22.9471 20.6729C22.9534 20.6792 22.9613 20.6835 22.9699 20.6855C22.9786 20.6875 22.9876 20.687 22.996 20.6841C23.5725 20.4786 24.1454 20.2752 24.7148 20.074C25.7943 19.6926 26.1972 20.0159 26.5613 21.0676C26.8643 21.9435 27.1672 22.8214 27.4701 23.7016C27.4727 23.7095 27.4778 23.7164 27.4846 23.7212C27.4913 23.726 27.4995 23.7285 27.5079 23.7284C27.5163 23.7283 27.5246 23.7255 27.5315 23.7205C27.5384 23.7155 27.5436 23.7085 27.5464 23.7005C27.8164 22.8934 28.0928 22.0874 28.3757 21.2824C28.7151 20.3157 28.9611 19.6142 30.2083 20.045C30.817 20.2555 31.4215 20.4678 32.0216 20.682C32.0289 20.6847 32.0369 20.6854 32.0446 20.6837C32.0523 20.682 32.0594 20.6782 32.0649 20.6727C32.0705 20.6671 32.0743 20.66 32.076 20.6524C32.0776 20.6447 32.077 20.6367 32.0742 20.6293C31.8515 20.0084 31.6345 19.3879 31.4233 18.7677C31.0859 17.7794 31.4942 17.3981 32.4137 17.0758C33.3053 16.7629 34.2012 16.4549 35.1014 16.152C35.1099 16.1494 35.1172 16.1442 35.1225 16.1371C35.1277 16.13 35.1305 16.1214 35.1305 16.1124C35.1305 16.1035 35.1277 16.0947 35.1225 16.0874C35.1172 16.08 35.1099 16.0744 35.1014 16.0714C34.0809 15.7334 33.0593 15.3832 32.0366 15.0208C31.2417 14.7394 31.2116 14.0669 31.4609 13.3407C31.6642 12.7485 31.8748 12.1559 32.0925 11.5629C32.0942 11.558 32.0944 11.5527 32.0933 11.5476C32.0921 11.5425 32.0895 11.5378 32.0858 11.5342C32.0821 11.5305 32.0775 11.5279 32.0724 11.5267C32.0673 11.5255 32.062 11.5258 32.057 11.5275C31.4684 11.743 30.8754 11.9532 30.2781 12.158C29.2308 12.5168 28.8236 12.2289 28.4627 11.1977C28.1483 10.2982 27.8386 9.39479 27.5335 8.48743C27.5316 8.48139 27.5278 8.47617 27.5226 8.47252C27.5175 8.46888 27.5113 8.46698 27.5049 8.4671C27.4984 8.46721 27.4922 8.46934 27.4869 8.47319C27.4816 8.47703 27.4776 8.48238 27.4755 8.4885C27.1962 9.33141 26.9087 10.1707 26.6129 11.0065C26.3121 11.8573 26.0769 12.5555 24.9575 12.2182Z" fill="url(#paint1_linear_251_757)"/>
<path d="M19.1705 6.27007L17.8868 4.98637C17.4865 4.58615 16.8377 4.58615 16.4375 4.98637L16.3752 5.04865C15.975 5.44886 15.975 6.09773 16.3752 6.49794L17.6589 7.78165C18.0591 8.18186 18.708 8.18186 19.1082 7.78165L19.1705 7.71936C19.5707 7.31915 19.5707 6.67028 19.1705 6.27007Z" fill="url(#paint2_linear_251_757)"/>
<path d="M38.6278 5.04865L38.5655 4.98637C38.1653 4.58615 37.5164 4.58615 37.1162 4.98637L35.8325 6.27007C35.4323 6.67028 35.4323 7.31915 35.8325 7.71936L35.8948 7.78165C36.295 8.18186 36.9438 8.18186 37.3441 7.78165L38.6278 6.49794C39.028 6.09773 39.028 5.44886 38.6278 5.04865Z" fill="url(#paint3_linear_251_757)"/>
<path d="M42.5442 17.1798C43.1334 17.1798 43.6109 16.7022 43.6109 16.1131C43.6109 15.524 43.1334 15.0464 42.5442 15.0464C41.9551 15.0464 41.4775 15.524 41.4775 16.1131C41.4775 16.7022 41.9551 17.1798 42.5442 17.1798Z" fill="url(#paint4_linear_251_757)"/>
<path d="M12.4661 17.1788C13.0552 17.1788 13.5328 16.7012 13.5328 16.1121C13.5328 15.523 13.0552 15.0454 12.4661 15.0454C11.877 15.0454 11.3994 15.523 11.3994 16.1121C11.3994 16.7012 11.877 17.1788 12.4661 17.1788Z" fill="url(#paint5_linear_251_757)"/>
<path d="M55 20.2824V20.5778C54.9549 20.9839 54.8851 21.2972 54.7905 21.5178C52.7957 26.1928 50.8707 30.9054 48.7803 35.5385C47.7512 37.8201 46.6157 39.7741 44.7702 41.495C43.1539 43.0018 41.5236 44.4939 39.8793 45.9713C39.7601 46.0787 39.7461 46.1915 39.7805 46.3387C39.7856 46.3608 39.7985 46.3804 39.8168 46.3938C39.8352 46.4072 39.8577 46.4136 39.8804 46.4117C40.5861 46.3612 41.4638 46.5514 41.4648 47.4269C41.4656 49.4858 41.4652 51.5447 41.4638 53.6036C41.4627 54.3652 41.2726 54.8647 40.4916 55.0001H14.4955C13.8603 54.8533 13.542 54.4505 13.5405 53.7916C13.5362 51.8064 13.5348 49.8216 13.5362 47.8372C13.5373 46.5825 14.0443 46.4289 15.1669 46.4053C15.1998 46.4046 15.222 46.3888 15.2335 46.358C15.2894 46.2119 15.2729 46.0991 15.1841 46.0196C14.0268 44.9791 12.8763 43.9317 11.7326 42.8775C10.2878 41.5444 9.43701 40.7764 8.47344 39.5356C7.69785 38.5377 7.06191 37.3228 6.52803 36.1701C4.33555 31.4382 2.31816 26.4237 0.233105 21.5446C0.0999024 21.231 0.0515625 20.9194 0 20.5918V20.2158C0.0966797 19.3285 0.452962 18.6399 1.06885 18.1501C2.70488 16.8492 4.63311 17.439 5.69766 19.1642C7.12565 21.4787 8.54971 23.7962 9.96982 26.1165C9.98916 26.148 10.0153 26.1559 10.0482 26.1401C11.1504 25.6338 12.1476 25.6797 13.0399 26.2776C13.3171 26.4638 13.6619 26.8147 14.0744 27.3304C15.3785 28.9625 16.6883 30.5885 18.0039 32.2084C18.9707 33.3986 19.8838 34.2677 21.0407 35.1163C23.5028 36.9221 25.9864 38.5785 27.4667 41.3618C27.4708 41.3694 27.4769 41.3758 27.4843 41.3801C27.4918 41.3845 27.5003 41.3868 27.5089 41.3867C27.5176 41.3866 27.526 41.3841 27.5333 41.3795C27.5407 41.3749 27.5466 41.3684 27.5505 41.3607C29.3831 37.8072 32.9012 36.2732 35.6791 33.679C36.0758 33.308 36.5535 32.7767 37.1121 32.0849C38.2658 30.6569 39.4167 29.2267 40.5646 27.7944C41.2285 26.9666 41.7083 26.4527 42.0041 26.2529C42.8649 25.6728 43.8578 25.6388 44.9829 26.1509C44.9925 26.1551 45.0032 26.1558 45.0131 26.1529C45.0229 26.1499 45.0313 26.1435 45.0366 26.1348C46.4639 23.7915 47.8937 21.4512 49.326 19.1137C50.9298 16.4979 54.768 17.107 55 20.2824ZM3.76836 20.1288C3.14209 19.1137 1.78857 19.7099 2.27734 20.8571C4.31299 25.6353 6.26807 30.4553 8.44443 35.1722C9.4166 37.2787 10.3394 38.6924 12.0237 40.2382C13.5685 41.6561 15.1189 43.0687 16.6751 44.476C17.3884 45.1205 17.4496 45.4073 17.3873 46.3591C17.3869 46.3651 17.3877 46.3712 17.3897 46.3769C17.3917 46.3826 17.3949 46.3879 17.399 46.3923C17.4031 46.3968 17.4081 46.4003 17.4137 46.4027C17.4193 46.4051 17.4253 46.4064 17.4313 46.4063H26.3903C26.4015 46.4063 26.4123 46.402 26.4203 46.3941C26.4284 46.3863 26.433 46.3757 26.4333 46.3645C26.5203 43.2986 25.0927 40.9214 22.7487 39.0716C21.2921 37.9222 19.1555 36.5472 17.6107 35.0153C17.2369 34.6451 16.7657 34.1062 16.1971 33.3986C14.8364 31.7078 13.4754 30.0166 12.114 28.3251C11.796 27.9309 11.1579 27.73 10.8518 28.2596C10.3479 29.1286 13.5266 34.9025 14.1636 35.9843C14.9896 37.384 13.0808 38.3304 12.4405 37.2701C11.309 35.3981 10.3225 33.4548 9.48106 31.4403C8.91602 30.0879 8.57227 29.3467 8.63457 28.1124C8.636 28.0766 8.62741 28.0433 8.60879 28.0125C7.00247 25.3807 5.389 22.7528 3.76836 20.1288ZM42.2866 37.5258C41.3746 38.1886 40.2177 37.1015 40.8096 36.0627C41.9955 33.9852 43.0396 31.9022 43.942 29.7012C44.1708 29.1447 44.5564 28.1854 43.7164 27.9588C43.2502 27.832 43.0246 28.1693 42.7002 28.5722C41.3309 30.2737 39.9642 31.9778 38.5999 33.6844C37.0831 35.5825 35.1345 36.9307 33.1987 38.3572C30.4025 40.4176 28.4636 42.7153 28.5742 46.3537C28.5745 46.3678 28.5804 46.3812 28.5906 46.391C28.6009 46.4008 28.6147 46.4064 28.629 46.4063H37.5504C37.5998 46.4063 37.6245 46.3813 37.6245 46.3312C37.6191 45.678 37.5375 45.1807 38.0714 44.7037C39.7085 43.2413 41.3309 41.7621 42.9387 40.2661C44.724 38.6054 45.737 37.0725 46.7704 34.7854C48.8361 30.2168 50.7203 25.5633 52.6969 20.956C53.2383 19.697 51.8762 19.089 51.2284 20.132C50.3425 21.5593 48.7269 24.2015 46.3815 28.0587C46.3629 28.0888 46.3554 28.1214 46.359 28.1564C46.4163 28.7752 46.3608 29.3162 46.1925 29.7796C45.3646 32.0584 44.2671 34.3726 42.9 36.7223C42.6601 37.1348 42.4556 37.4026 42.2866 37.5258ZM26.4258 48.6182C26.4258 48.6014 26.4191 48.5852 26.4072 48.5733C26.3953 48.5615 26.3792 48.5548 26.3624 48.5548H15.747C15.7302 48.5548 15.714 48.5615 15.7022 48.5733C15.6903 48.5852 15.6836 48.6014 15.6836 48.6182V52.7883C15.6836 52.8051 15.6903 52.8212 15.7022 52.8331C15.714 52.845 15.7302 52.8517 15.747 52.8517H26.3624C26.3792 52.8517 26.3953 52.845 26.4072 52.8331C26.4191 52.8212 26.4258 52.8051 26.4258 52.7883V48.6182ZM39.3164 48.6182C39.3164 48.6014 39.3097 48.5852 39.2978 48.5733C39.286 48.5615 39.2698 48.5548 39.253 48.5548H28.6376C28.6208 48.5548 28.6047 48.5615 28.5928 48.5733C28.5809 48.5852 28.5742 48.6014 28.5742 48.6182V52.7883C28.5742 52.8051 28.5809 52.8212 28.5928 52.8331C28.6047 52.845 28.6208 52.8517 28.6376 52.8517H39.253C39.2698 52.8517 39.286 52.845 39.2978 52.8331C39.3097 52.8212 39.3164 52.8051 39.3164 52.7883V48.6182Z" fill="url(#paint6_linear_251_757)"/>
<path d="M17.6592 24.4438L16.3755 25.7275C15.9753 26.1277 15.9753 26.7766 16.3755 27.1768L16.4378 27.2391C16.838 27.6393 17.4869 27.6393 17.8871 27.2391L19.1708 25.9554C19.571 25.5552 19.571 24.9063 19.1708 24.5061L19.1085 24.4438C18.7083 24.0436 18.0594 24.0436 17.6592 24.4438Z" fill="url(#paint7_linear_251_757)"/>
<path d="M38.6334 25.7348L37.3399 24.4458C36.9394 24.0467 36.2912 24.0478 35.8921 24.4483L35.8315 24.5092C35.4324 24.9097 35.4335 25.5578 35.834 25.9569L37.1275 27.246C37.528 27.6451 38.1762 27.6439 38.5753 27.2435L38.636 27.1826C39.0351 26.7821 39.0339 26.1339 38.6334 25.7348Z" fill="url(#paint8_linear_251_757)"/>
<path d="M27.5042 32.2179C28.0933 32.2179 28.5709 31.7403 28.5709 31.1512C28.5709 30.562 28.0933 30.0845 27.5042 30.0845C26.9151 30.0845 26.4375 30.562 26.4375 31.1512C26.4375 31.7403 26.9151 32.2179 27.5042 32.2179Z" fill="url(#paint9_linear_251_757)"/>
</g>
<defs>
<linearGradient id="paint0_linear_251_757" x1="27.4985" y1="0" x2="27.4985" y2="2.13705" gradientUnits="userSpaceOnUse">
<stop stop-color="#B381E0"/>
<stop offset="1" stop-color="#5FABD9"/>
</linearGradient>
<linearGradient id="paint1_linear_251_757" x1="27.4991" y1="4.05615" x2="27.4991" y2="28.1644" gradientUnits="userSpaceOnUse">
<stop stop-color="#B381E0"/>
<stop offset="1" stop-color="#5FABD9"/>
</linearGradient>
<linearGradient id="paint2_linear_251_757" x1="18.5286" y1="5.62822" x2="17.017" y2="7.1398" gradientUnits="userSpaceOnUse">
<stop stop-color="#B381E0"/>
<stop offset="1" stop-color="#5FABD9"/>
</linearGradient>
<linearGradient id="paint3_linear_251_757" x1="38.5966" y1="5.01751" x2="35.8636" y2="7.7505" gradientUnits="userSpaceOnUse">
<stop stop-color="#B381E0"/>
<stop offset="1" stop-color="#5FABD9"/>
</linearGradient>
<linearGradient id="paint4_linear_251_757" x1="42.5442" y1="15.0464" x2="42.5442" y2="17.1798" gradientUnits="userSpaceOnUse">
<stop stop-color="#B381E0"/>
<stop offset="1" stop-color="#5FABD9"/>
</linearGradient>
<linearGradient id="paint5_linear_251_757" x1="12.4661" y1="15.0454" x2="12.4661" y2="17.1788" gradientUnits="userSpaceOnUse">
<stop stop-color="#B381E0"/>
<stop offset="1" stop-color="#5FABD9"/>
</linearGradient>
<linearGradient id="paint6_linear_251_757" x1="27.5" y1="17.4443" x2="27.5" y2="55.0001" gradientUnits="userSpaceOnUse">
<stop stop-color="#B381E0"/>
<stop offset="1" stop-color="#5FABD9"/>
</linearGradient>
<linearGradient id="paint7_linear_251_757" x1="17.0174" y1="25.0857" x2="18.529" y2="26.5972" gradientUnits="userSpaceOnUse">
<stop stop-color="#B381E0"/>
<stop offset="1" stop-color="#5FABD9"/>
</linearGradient>
<linearGradient id="paint8_linear_251_757" x1="37.9867" y1="25.0903" x2="36.4808" y2="26.6015" gradientUnits="userSpaceOnUse">
<stop stop-color="#B381E0"/>
<stop offset="1" stop-color="#5FABD9"/>
</linearGradient>
<linearGradient id="paint9_linear_251_757" x1="27.5042" y1="30.0845" x2="27.5042" y2="32.2179" gradientUnits="userSpaceOnUse">
<stop stop-color="#B381E0"/>
<stop offset="1" stop-color="#5FABD9"/>
</linearGradient>
<clipPath id="clip0_251_757">
<rect width="55" height="55" fill="white"/>
</clipPath>
</defs>
</svg>
