<svg width="62" height="62" viewBox="0 0 62 62" fill="none" xmlns="http://www.w3.org/2000/svg">
<rect x="0.0244141" y="0.536133" width="61.4634" height="61.4634" rx="30.7317" fill="#48C95F"/>
<path d="M42.9362 19.071C39.9005 16.0459 35.853 14.3652 31.5805 14.3652C22.6983 14.3652 15.5026 21.536 15.5026 30.3873C15.5026 33.1884 16.2896 35.9895 17.6388 38.3424L15.3901 46.6335L23.9351 44.3927C26.2961 45.6251 28.8821 46.2974 31.5805 46.2974C40.4627 46.2974 47.6584 39.1267 47.6584 30.2753C47.546 26.1297 45.9719 22.0962 42.9362 19.071ZM39.3384 36.1015C39.0011 36.9979 37.427 37.8942 36.64 38.0062C35.9654 38.1183 35.0659 38.1183 34.1665 37.8942C33.6043 37.6701 32.8173 37.446 31.9178 36.9979C27.8702 35.3172 25.2842 31.2837 25.0594 30.9476C24.8345 30.7235 23.3729 28.8187 23.3729 26.802C23.3729 24.7852 24.3848 23.8889 24.7221 23.4407C25.0594 22.9925 25.5091 22.9925 25.8464 22.9925C26.0713 22.9925 26.4086 22.9925 26.6334 22.9925C26.8583 22.9925 27.1956 22.8805 27.5329 23.6648C27.8702 24.4491 28.6572 26.4658 28.7697 26.5779C28.8821 26.802 28.8821 27.0261 28.7697 27.2501C28.6572 27.4742 28.5448 27.6983 28.3199 27.9224C28.0951 28.1465 27.8702 28.4826 27.7578 28.5947C27.5329 28.8187 27.308 29.0428 27.5329 29.379C27.7578 29.8271 28.5448 31.0596 29.7816 32.18C31.3556 33.5245 32.5924 33.9727 33.0421 34.1968C33.4919 34.4209 33.7167 34.3088 33.9416 34.0847C34.1665 33.8607 34.9535 32.9643 35.1784 32.5162C35.4032 32.068 35.7405 32.18 36.0778 32.2921C36.4151 32.4041 38.4389 33.4125 38.7762 33.6366C39.2259 33.8607 39.4508 33.9727 39.5632 34.0847C39.6757 34.4209 39.6757 35.2052 39.3384 36.1015Z" fill="white"/>
</svg>
