<svg width="49" height="49" viewBox="0 0 49 49" fill="none" xmlns="http://www.w3.org/2000/svg">
<g clip-path="url(#clip0_251_770)">
<path d="M24.2904 0H24.6971C25.3415 0.0695443 25.8568 0.270521 26.2428 0.60293C28.5715 2.61206 30.4247 5.10576 31.8021 8.08404C31.8194 8.12169 31.8452 8.12871 31.8797 8.1051C34.2914 6.46666 37.1969 5.82066 40.0939 5.92498C41.3562 5.96996 42.3668 6.50016 42.8405 7.65242C43.0064 8.05629 43.0891 8.63115 43.0884 9.37699C43.0855 12.1064 42.4415 14.8445 40.892 17.1194C40.8881 17.1251 40.8855 17.1316 40.8844 17.1385C40.8833 17.1453 40.8837 17.1524 40.8856 17.1591C40.8875 17.1658 40.8909 17.1721 40.8955 17.1775C40.9 17.1828 40.9057 17.1872 40.9121 17.1902C43.7181 18.4771 46.1458 20.2613 48.1951 22.5429C48.6957 23.0999 48.9282 23.6301 49 24.3383V24.7211C48.9241 25.3763 48.6861 25.926 48.2861 26.37C46.1985 28.6873 43.7446 30.4996 40.9246 31.8069C40.9169 31.8104 40.9101 31.8155 40.9046 31.8219C40.8991 31.8283 40.8951 31.8357 40.8928 31.8438C40.8905 31.8518 40.89 31.8602 40.8914 31.8684C40.8927 31.8766 40.8959 31.8844 40.9006 31.8912C42.4482 34.1785 43.0942 36.9385 43.0865 39.6603C43.0846 40.3909 43.001 40.9565 42.8358 41.3572C42.3352 42.5726 41.2519 43.053 39.98 43.0932C37.0413 43.1857 34.3517 42.4555 31.9113 40.9026C31.903 40.8974 31.8938 40.8941 31.8842 40.8928C31.8746 40.8915 31.8649 40.8922 31.8555 40.8949C31.8462 40.8976 31.8376 40.9022 31.8302 40.9085C31.8228 40.9148 31.8169 40.9225 31.8127 40.9313C30.513 43.6856 28.7779 46.0648 26.6074 48.0688C26.0089 48.6207 25.3604 48.9311 24.6617 49H24.3268C23.676 48.9368 23.1531 48.7355 22.7582 48.3961C20.423 46.3883 18.5712 43.8965 17.2026 40.9207C17.1841 40.8805 17.1557 40.8716 17.1175 40.8939C14.7373 42.2979 12.4309 43.0798 9.644 43.0942C8.86243 43.098 8.30257 43.0552 7.96441 42.9659C6.79588 42.6578 5.99484 41.5553 5.93551 40.3628C5.78908 37.3998 6.43125 34.3507 8.11275 31.873C8.11591 31.8682 8.118 31.8628 8.11889 31.8571C8.11978 31.8514 8.11944 31.8456 8.1179 31.8401C8.11636 31.8345 8.11365 31.8294 8.10995 31.825C8.10626 31.8206 8.10167 31.8171 8.09648 31.8146C5.6216 30.6725 3.42107 29.1394 1.49488 27.2151C0.708203 26.4294 0.110059 25.7786 0 24.6857V24.2789C0.0759245 23.6377 0.27722 23.1311 0.603887 22.7592C2.38141 20.7373 4.45881 19.094 6.83607 17.8295C7.24887 17.61 7.66359 17.3934 8.08021 17.1797C8.1102 17.1644 8.11562 17.1427 8.09648 17.1146C6.47814 14.7019 5.83215 11.7753 5.92211 8.89943C5.96039 7.68592 6.47623 6.66381 7.61414 6.18051C8.0531 5.99357 8.66656 5.90456 9.45451 5.9135C12.2165 5.94412 14.8177 6.54801 17.1261 8.10223C17.1312 8.10573 17.1371 8.10807 17.1432 8.10909C17.1493 8.11012 17.1556 8.1098 17.1616 8.10816C17.1676 8.10653 17.1732 8.10361 17.178 8.09961C17.1827 8.09561 17.1866 8.09063 17.1892 8.085C18.4685 5.31535 20.2288 2.91033 22.4701 0.869941C23.0472 0.344531 23.5545 0.0851758 24.2904 0ZM18.0324 10.2431C17.7548 10.4422 17.2802 10.4881 17.0093 10.2402C14.8158 8.23143 11.7811 7.52896 8.83531 7.64381C7.93762 7.67826 7.65625 8.21229 7.63711 9.0516C7.57299 11.7992 8.24674 14.7431 10.0996 16.8552C10.2501 17.0269 10.342 17.1835 10.3752 17.3251C10.5474 18.0487 10.0306 18.2573 9.40666 18.5176C6.66827 19.6584 4.28846 21.3128 2.26721 23.4808C1.72648 24.0617 1.46139 24.6349 2.04326 25.2809C4.18382 27.6569 6.75345 29.4402 9.75215 30.6307C10.5149 30.9341 10.5972 31.5658 10.0823 32.1639C8.19984 34.3498 7.52035 37.2831 7.64189 40.1226C7.67635 40.9354 8.11212 41.3492 8.9492 41.3638C11.6069 41.4117 14.2569 40.8939 16.3815 39.2957C16.7126 39.0469 16.995 38.6526 17.4237 38.6019C18.0219 38.531 18.2391 38.9205 18.4544 39.445C19.6175 42.2829 21.3243 44.7406 23.5746 46.818C24.3622 47.5453 24.9106 47.3233 25.6178 46.6486C27.826 44.5425 29.496 42.0772 30.6279 39.2526C30.9284 38.5023 31.5418 38.3951 32.1467 38.9081C34.3459 40.7714 37.151 41.4375 40.0039 41.3629C40.8662 41.3409 41.3332 41.0069 41.3572 40.0987C41.4318 37.3175 40.8442 34.3708 38.9923 32.2625C38.6373 31.8586 38.3913 31.4107 38.7636 30.9609C38.8746 30.8269 39.1365 30.6748 39.5493 30.5044C42.3624 29.3439 44.7964 27.6394 46.8515 25.391C47.4075 24.7823 47.4266 24.2426 46.8524 23.6147C44.7942 21.3644 42.3547 19.6574 39.534 18.4937C39.1748 18.3457 38.9461 18.226 38.8478 18.1348C38.4459 17.7615 38.5463 17.2495 38.8928 16.8619C40.8107 14.7124 41.4902 11.5533 41.3438 8.73004C41.293 7.76152 40.5389 7.63711 39.7417 7.63328C37.2304 7.62275 34.702 8.15104 32.6922 9.67846C32.4925 9.83031 32.2941 9.98726 32.0969 10.1493C31.5581 10.5924 30.9092 10.4651 30.6394 9.7933C29.4348 6.7946 27.6681 4.23199 25.3393 2.10547C24.7498 1.56762 24.2043 1.61164 23.6128 2.15236C21.2652 4.29898 19.6153 6.80066 18.376 9.72918C18.2681 9.98439 18.1536 10.1557 18.0324 10.2431Z" fill="url(#paint0_linear_251_770)"/>
<path d="M23.7169 22.1181C21.3483 19.5867 19.5012 16.1127 19.9271 12.5602C20.2429 9.92648 21.8613 7.25253 23.6442 5.25616C24.1141 4.72979 24.6003 4.46278 25.1582 5.05901C26.6193 6.62089 27.7228 8.34769 28.4686 10.2394C30.1759 14.5729 28.3107 18.7685 25.387 22.0224C24.7955 22.6818 24.34 22.7832 23.7169 22.1181ZM24.5773 20.3189C26.2081 18.356 27.5652 15.7892 27.3967 13.1746C27.2503 10.9036 25.9363 8.66128 24.5199 6.94341C24.5162 6.93899 24.5116 6.93543 24.5064 6.93299C24.5012 6.93055 24.4955 6.92929 24.4897 6.92929C24.484 6.92929 24.4783 6.93055 24.4731 6.93299C24.4679 6.93543 24.4633 6.93899 24.4596 6.94341C23.0786 8.65554 21.8 10.7916 21.6096 13.0292C21.3818 15.7098 22.7752 18.3531 24.4653 20.3658C24.4726 20.3748 24.4825 20.3813 24.4937 20.3844C24.5048 20.3874 24.5167 20.387 24.5275 20.383C24.5563 20.3734 24.5728 20.3521 24.5773 20.3189Z" fill="url(#paint1_linear_251_770)"/>
<path d="M15.8678 12.3402C16.7342 13.4899 17.2398 14.7946 17.3847 16.2544C17.4622 17.0363 17.1291 17.4737 16.3319 17.399C14.8689 17.2612 13.5301 16.7524 12.3153 15.8726C10.9458 14.8801 10.1399 12.7948 9.94375 11.1898C9.8423 10.3591 10.1179 9.84137 11.0108 9.92846C12.4304 10.0682 13.7103 10.5429 14.8504 11.3525C15.2416 11.6301 15.5807 11.9593 15.8678 12.3402ZM15.4639 15.4534C15.1117 13.548 13.7891 12.2263 11.8865 11.8588C11.8559 11.8531 11.8438 11.8655 11.8502 11.8961C12.2872 13.8529 13.4813 15.0489 15.4323 15.484C15.4585 15.4904 15.469 15.4802 15.4639 15.4534Z" fill="url(#paint2_linear_251_770)"/>
<path d="M34.0204 11.4528C35.1593 10.5953 36.4519 10.0907 37.8983 9.9388C38.7175 9.85267 39.1558 10.1915 39.0726 11.025C38.9022 12.7467 38.0926 14.8445 36.6484 15.8935C35.5153 16.7165 34.2447 17.2126 32.8365 17.3816C32.0173 17.4793 31.5235 17.1864 31.6068 16.3193C31.7427 14.8978 32.2158 13.6167 33.026 12.4759C33.3055 12.0829 33.6369 11.7419 34.0204 11.4528ZM37.1499 11.8289C35.2301 12.2615 33.9228 13.4769 33.5333 15.4341C33.5262 15.4679 33.5396 15.481 33.5735 15.4733C35.5437 15.0318 36.7431 13.8244 37.1719 11.851C37.1726 11.8479 37.1726 11.8447 37.1718 11.8417C37.1709 11.8387 37.1693 11.836 37.1671 11.8337C37.1649 11.8315 37.1621 11.8299 37.1591 11.8291C37.1561 11.8282 37.1529 11.8282 37.1499 11.8289Z" fill="url(#paint3_linear_251_770)"/>
<path d="M22.0653 23.6566C22.7002 24.2085 22.7129 24.7588 22.1036 25.3075C18.8593 28.2303 14.7153 30.175 10.3293 28.5002C8.41328 27.768 6.70402 26.6607 5.1833 25.2931C4.59472 24.7639 4.544 24.2864 5.13353 23.7542C7.46103 21.6497 10.6164 19.796 13.8339 19.861C16.9605 19.9252 19.7292 21.6239 22.0653 23.6566ZM20.3656 24.4653C18.887 23.2307 16.9921 22.0986 15.0981 21.7282C12.0998 21.1415 9.1789 22.579 6.93945 24.4816C6.93623 24.4843 6.93364 24.4876 6.93187 24.4915C6.93009 24.4953 6.92917 24.4994 6.92917 24.5036C6.92917 24.5078 6.93009 24.5119 6.93187 24.5157C6.93364 24.5195 6.93623 24.5229 6.93945 24.5256C9.59712 26.7593 12.9448 28.2207 16.4026 26.8971C17.7903 26.3669 19.1981 25.5094 20.3656 24.5247C20.37 24.5211 20.3736 24.5165 20.376 24.5114C20.3785 24.5063 20.3797 24.5007 20.3797 24.495C20.3797 24.4893 20.3785 24.4837 20.376 24.4786C20.3736 24.4734 20.37 24.4689 20.3656 24.4653Z" fill="url(#paint4_linear_251_770)"/>
<path d="M44.0292 23.9202C44.5038 24.3863 44.2636 24.8811 43.8272 25.2802C41.2834 27.6048 37.8716 29.4566 34.321 29.0757C31.6567 28.7896 29.0784 27.2354 27.1012 25.5022C26.4562 24.9375 26.0973 24.4179 26.8648 23.7317C30.4135 20.561 34.6684 18.6766 39.3321 20.7687C41.16 21.5886 42.7257 22.6391 44.0292 23.9202ZM28.6497 24.5566C29.636 25.3682 30.6834 26.0394 31.7916 26.5702C34.158 27.7034 36.5216 27.6999 38.8822 26.5597C40.0671 25.988 41.1223 25.3156 42.0481 24.5423C42.0724 24.5219 42.0724 24.5011 42.0481 24.4801C40.8652 23.4618 39.5528 22.6764 38.1109 22.1239C36.0542 21.3353 34.098 21.43 32.0519 22.3392C30.8091 22.8917 29.6746 23.6015 28.6487 24.4686C28.6423 24.4741 28.6372 24.4808 28.6338 24.4885C28.6303 24.4961 28.6285 24.5044 28.6286 24.5128C28.6287 24.5212 28.6307 24.5295 28.6343 24.5371C28.6379 24.5446 28.6432 24.5513 28.6497 24.5566Z" fill="url(#paint5_linear_251_770)"/>
<path d="M25.3919 27.0057C28.1271 30.0357 30.0163 34.039 28.6889 38.1379C28.0074 40.2386 26.7805 42.1546 25.3153 43.7921C24.8023 44.3653 24.3277 44.4744 23.785 43.8868C21.4288 41.3334 19.4621 37.7388 19.9263 34.1911C20.2765 31.5114 21.9829 28.6509 23.8377 26.7349C24.4157 26.1377 24.9268 26.4908 25.3919 27.0057ZM24.4578 28.6394C22.7361 30.7066 21.3398 33.3729 21.626 36.1234C21.8489 38.2681 23.1103 40.4051 24.4712 42.0455C24.4904 42.0684 24.5095 42.0684 24.5286 42.0455C25.8388 40.5152 27.0294 38.447 27.3404 36.4411C27.7835 33.5844 26.2934 30.7927 24.5334 28.6394C24.5288 28.6338 24.5231 28.6293 24.5165 28.6262C24.51 28.6231 24.5029 28.6214 24.4956 28.6214C24.4884 28.6214 24.4812 28.6231 24.4747 28.6262C24.4682 28.6293 24.4624 28.6338 24.4578 28.6394Z" fill="url(#paint6_linear_251_770)"/>
<path d="M10.8145 39.0957C10.1034 39.1503 9.86897 38.5091 9.93022 37.9291C10.0853 36.4834 10.5848 35.1828 11.4289 34.0273C12.4577 32.6186 14.5106 31.8118 16.1892 31.6185C17.0218 31.5218 17.4802 31.8481 17.3941 32.7056C17.2461 34.1897 16.7338 35.5196 15.8571 36.6955C14.7671 38.1559 12.5716 38.9608 10.8145 39.0957ZM15.4351 33.5297C13.5057 33.9144 12.2252 35.236 11.8242 37.1511C11.8237 37.1543 11.8239 37.1576 11.8249 37.1607C11.826 37.1638 11.8277 37.1666 11.8301 37.1688C11.8325 37.1711 11.8353 37.1728 11.8385 37.1737C11.8416 37.1746 11.8449 37.1747 11.8481 37.174C13.7737 36.7462 15.0714 35.5251 15.4791 33.5746C15.4874 33.537 15.4727 33.522 15.4351 33.5297Z" fill="url(#paint7_linear_251_770)"/>
<path d="M33.6322 37.2535C33.6045 37.2296 33.5671 37.2219 33.5365 37.1865C32.4493 35.9194 31.8097 34.4622 31.6177 32.8148C31.5201 31.985 31.8493 31.519 32.7058 31.608C34.1809 31.7611 35.5064 32.2702 36.6823 33.1354C38.0786 34.1632 38.8748 36.2266 39.0634 37.8938C39.1562 38.7139 38.8078 39.157 37.9752 39.0738C36.3438 38.9098 34.8961 38.303 33.6322 37.2535ZM33.5394 33.5603C33.8992 35.4753 35.2142 36.7625 37.1139 37.1473C37.1464 37.1536 37.1602 37.1403 37.1551 37.1071C36.866 35.26 35.419 33.8235 33.5758 33.523C33.5458 33.5179 33.5336 33.5303 33.5394 33.5603Z" fill="url(#paint8_linear_251_770)"/>
</g>
<defs>
<linearGradient id="paint0_linear_251_770" x1="24.5" y1="0" x2="24.5" y2="49" gradientUnits="userSpaceOnUse">
<stop stop-color="#5FABD9"/>
<stop offset="1" stop-color="#B381E0"/>
</linearGradient>
<linearGradient id="paint1_linear_251_770" x1="24.4929" y1="4.71924" x2="24.4929" y2="22.5697" gradientUnits="userSpaceOnUse">
<stop stop-color="#5FABD9"/>
<stop offset="1" stop-color="#B381E0"/>
</linearGradient>
<linearGradient id="paint2_linear_251_770" x1="13.6597" y1="9.91895" x2="13.6597" y2="17.4073" gradientUnits="userSpaceOnUse">
<stop stop-color="#5FABD9"/>
<stop offset="1" stop-color="#B381E0"/>
</linearGradient>
<linearGradient id="paint3_linear_251_770" x1="35.3401" y1="9.92578" x2="35.3401" y2="17.3996" gradientUnits="userSpaceOnUse">
<stop stop-color="#5FABD9"/>
<stop offset="1" stop-color="#B381E0"/>
</linearGradient>
<linearGradient id="paint4_linear_251_770" x1="13.6335" y1="19.8594" x2="13.6335" y2="29.1191" gradientUnits="userSpaceOnUse">
<stop stop-color="#5FABD9"/>
<stop offset="1" stop-color="#B381E0"/>
</linearGradient>
<linearGradient id="paint5_linear_251_770" x1="35.3599" y1="19.8862" x2="35.3599" y2="29.1256" gradientUnits="userSpaceOnUse">
<stop stop-color="#5FABD9"/>
<stop offset="1" stop-color="#B381E0"/>
</linearGradient>
<linearGradient id="paint6_linear_251_770" x1="24.4906" y1="26.4224" x2="24.4906" y2="44.2781" gradientUnits="userSpaceOnUse">
<stop stop-color="#5FABD9"/>
<stop offset="1" stop-color="#B381E0"/>
</linearGradient>
<linearGradient id="paint7_linear_251_770" x1="13.6627" y1="31.6021" x2="13.6627" y2="39.099" gradientUnits="userSpaceOnUse">
<stop stop-color="#5FABD9"/>
<stop offset="1" stop-color="#B381E0"/>
</linearGradient>
<linearGradient id="paint8_linear_251_770" x1="35.3395" y1="31.5972" x2="35.3395" y2="39.0837" gradientUnits="userSpaceOnUse">
<stop stop-color="#5FABD9"/>
<stop offset="1" stop-color="#B381E0"/>
</linearGradient>
<clipPath id="clip0_251_770">
<rect width="49" height="49" fill="white"/>
</clipPath>
</defs>
</svg>
