<svg width="53" height="53" viewBox="0 0 53 53" fill="none" xmlns="http://www.w3.org/2000/svg">
<path d="M6.61863 16.0645C8.86492 11.397 12.6443 7.47895 17.3128 5.12087C22.2057 2.6496 27.4329 1.92534 32.9944 2.94807C33.5451 3.04952 33.9395 3.4201 33.8018 4.00393C33.6983 4.4418 33.3691 4.57016 32.9282 4.67885C22.678 7.20464 16.5323 17.7322 19.5508 27.8881C22.0269 36.218 30.0028 41.7613 38.7136 41.0553C41.8281 40.8027 44.7545 39.7993 47.4928 38.045C48.2702 37.5471 49.0662 38.5098 48.5528 39.3121C41.8346 49.8127 28.1892 53.6417 17.0737 47.7517C5.60832 41.6764 1.00912 27.7173 6.61863 16.0645ZM11.6247 11.573C0.688226 23.7671 6.2025 43.166 21.7971 47.877C30.274 50.439 39.135 47.8645 45.0084 41.282C45.0512 41.2344 45.0433 41.223 44.9846 41.2478C39.0459 43.7767 31.9634 43.1753 26.5226 39.7065C12.9041 31.0277 14.3326 10.779 29.1405 4.20682C29.1468 4.20431 29.1521 4.19965 29.1553 4.19367C29.1585 4.1877 29.1595 4.18077 29.1582 4.17412C29.1568 4.16746 29.1532 4.16149 29.1479 4.15725C29.1426 4.15301 29.1359 4.15077 29.1291 4.15092C22.4451 3.95321 16.0913 6.59389 11.6247 11.573Z" fill="url(#paint0_linear_251_801)"/>
<path d="M16.1286 10.771C16.8346 10.2276 17.7766 11.0153 17.3594 11.8207C14.7978 16.7625 14.0583 21.9145 15.1411 27.2766C16.8243 35.6065 23.2598 42.2325 31.3703 44.4881C31.7005 44.5803 31.9914 44.7945 32.0556 45.1144C32.185 45.7541 31.7554 46.074 31.1591 46.1578C21.2578 47.5605 11.8835 41.5617 9.1372 31.9017C6.91162 24.0707 9.75933 15.6766 16.1286 10.771ZM14.1763 14.9479C4.87443 26.495 12.2354 43.4861 26.9585 44.6682C26.9634 44.6682 26.9683 44.6666 26.9723 44.6635C26.9762 44.6605 26.9791 44.6562 26.9804 44.6514C26.9816 44.6465 26.9813 44.6414 26.9794 44.6368C26.9775 44.6322 26.9742 44.6283 26.9698 44.6258C15.8253 39.3289 10.3918 26.7248 14.2229 14.9727C14.2247 14.9668 14.2244 14.9604 14.222 14.9546C14.2196 14.9489 14.2153 14.9441 14.2098 14.9412C14.2043 14.9382 14.198 14.9373 14.1919 14.9385C14.1858 14.9398 14.1803 14.9431 14.1763 14.9479Z" fill="url(#paint1_linear_251_801)"/>
<defs>
<linearGradient id="paint0_linear_251_801" x1="26.4741" y1="2.49902" x2="26.4741" y2="50.5203" gradientUnits="userSpaceOnUse">
<stop stop-color="#5FABD9"/>
<stop offset="1" stop-color="#B381E0"/>
</linearGradient>
<linearGradient id="paint1_linear_251_801" x1="20.2332" y1="10.5913" x2="20.2332" y2="46.3605" gradientUnits="userSpaceOnUse">
<stop stop-color="#5FABD9"/>
<stop offset="1" stop-color="#B381E0"/>
</linearGradient>
</defs>
</svg>
