<svg width="66" height="66" viewBox="0 0 66 66" fill="none" xmlns="http://www.w3.org/2000/svg">
<path d="M34.1032 0H34.3611C35.422 0.210117 35.5431 0.912656 35.5444 1.92199C35.5461 5.95332 35.5466 9.98422 35.5457 14.0147C35.5457 14.9892 35.8293 16.3801 34.5763 16.6611C33.7745 16.8416 32.9779 16.2899 32.9753 15.4365C32.9581 10.9016 32.9431 6.36668 32.9302 1.83176C32.9276 0.859805 33.1016 0.204961 34.1032 0Z" fill="url(#paint0_linear_251_782)"/>
<path d="M13.2003 8.27703L13.1672 8.297C12.5625 8.6618 12.368 9.44775 12.7328 10.0525L18.776 20.0704C19.1408 20.6751 19.9267 20.8696 20.5314 20.5048L20.5646 20.4849C21.1693 20.1201 21.3638 19.3341 20.999 18.7294L14.9558 8.71146C14.591 8.10674 13.8051 7.91223 13.2003 8.27703Z" fill="url(#paint1_linear_251_782)"/>
<path d="M55.337 8.29377L55.3039 8.2738C54.6992 7.909 53.9133 8.10351 53.5485 8.70823L47.5026 18.7306C47.1378 19.3353 47.3323 20.1212 47.937 20.486L47.9702 20.506C48.5749 20.8708 49.3608 20.6763 49.7256 20.0716L55.7715 10.0492C56.1363 9.44452 55.9418 8.65857 55.337 8.29377Z" fill="url(#paint2_linear_251_782)"/>
<path d="M24.8328 8.21615L24.7736 8.23434C24.1047 8.44012 23.7293 9.14918 23.9351 9.81807L26.0842 16.8039C26.29 17.4728 26.9991 17.8483 27.668 17.6425L27.7271 17.6243C28.396 17.4185 28.7714 16.7095 28.5656 16.0406L26.4165 9.05469C26.2107 8.3858 25.5017 8.01037 24.8328 8.21615Z" fill="url(#paint3_linear_251_782)"/>
<path d="M43.7275 8.23318L43.6684 8.21499C43.0002 8.00942 42.2919 8.38446 42.0863 9.05267L39.9356 16.0435C39.7301 16.7117 40.1051 17.42 40.7733 17.6256L40.8325 17.6438C41.5007 17.8494 42.209 17.4743 42.4146 16.8061L44.5652 9.81529C44.7708 9.14708 44.3957 8.43875 43.7275 8.23318Z" fill="url(#paint4_linear_251_782)"/>
<path d="M7.31995 17.7239L7.28267 17.7596C6.77518 18.2445 6.75692 19.0491 7.24189 19.5566L12.3361 24.8874C12.821 25.3948 13.6256 25.4131 14.1331 24.9281L14.1704 24.8925C14.6779 24.4075 14.6961 23.603 14.2112 23.0955L9.11697 17.7647C8.632 17.2572 7.82745 17.239 7.31995 17.7239Z" fill="url(#paint5_linear_251_782)"/>
<path d="M61.2149 17.7647L61.1776 17.7291C60.6696 17.2436 59.8643 17.2619 59.3788 17.7699L54.2935 23.0914C53.8081 23.5994 53.8263 24.4047 54.3344 24.8902L54.3716 24.9258C54.8796 25.4113 55.685 25.393 56.1705 24.885L61.2557 19.5636C61.7412 19.0556 61.7229 18.2502 61.2149 17.7647Z" fill="url(#paint6_linear_251_782)"/>
<path d="M37.3504 21.4616C27.8242 19.751 18.7092 26.3691 12.9536 33.2694C12.6227 33.6665 12.3443 33.9075 12.1183 33.9926C11.1643 34.3523 10.1769 33.4319 10.445 32.4625C10.5052 32.2459 10.6754 31.9675 10.9555 31.6272C15.3963 26.2247 21.3454 21.5274 28.1142 19.5139C39.7325 16.0579 50.6806 23.2289 57.7085 31.8218C58.9422 33.3313 56.957 34.9839 55.677 33.4293C51.0634 27.827 44.6568 22.7739 37.3504 21.4616Z" fill="url(#paint7_linear_251_782)"/>
<path d="M37.7774 46.3455C29.4333 48.323 21.1743 42.6137 16.1895 36.4056C15.6339 35.7133 15.5746 35.1397 16.1418 34.4462C20.892 28.6287 28.4047 23.1205 36.3079 24.1749C42.5676 25.009 48.4186 29.6444 52.2948 34.3689C52.8827 35.0869 52.9278 35.6541 52.3348 36.3811C48.6648 40.8864 43.5241 44.983 37.7774 46.3455ZM43.0123 35.4001C43.0123 34.2495 42.7857 33.1101 42.3454 32.0471C41.905 30.9841 41.2597 30.0182 40.446 29.2046C39.6324 28.391 38.6666 27.7456 37.6035 27.3053C36.5405 26.865 35.4012 26.6383 34.2506 26.6383C31.9268 26.6383 29.6982 27.5615 28.0551 29.2046C26.4119 30.8478 25.4888 33.0763 25.4888 35.4001C25.4888 37.7239 26.4119 39.9525 28.0551 41.5956C29.6982 43.2387 31.9268 44.1619 34.2506 44.1619C36.5743 44.1619 38.8029 43.2387 40.446 41.5956C42.0892 39.9525 43.0123 37.7239 43.0123 35.4001ZM18.7766 35.4646C20.4099 37.1494 21.9452 38.7233 23.8375 40.1451C23.8445 40.1504 23.8531 40.1531 23.8619 40.153C23.8706 40.1529 23.8791 40.1499 23.886 40.1444C23.8929 40.139 23.8978 40.1315 23.9 40.123C23.9022 40.1145 23.9015 40.1055 23.8981 40.0974C22.5377 36.9427 22.5463 33.7926 23.9239 30.6473C23.926 30.6422 23.9264 30.6365 23.925 30.631C23.9236 30.6256 23.9205 30.6208 23.9162 30.6173C23.9118 30.6138 23.9064 30.6119 23.9008 30.6117C23.8953 30.6115 23.8898 30.6132 23.8852 30.6164C22.0161 32.018 20.3123 33.598 18.7741 35.3563C18.7414 35.3932 18.7423 35.4293 18.7766 35.4646ZM49.7232 35.3627C48.2343 33.6212 46.4863 32.0228 44.6455 30.6538C44.6399 30.6495 44.6329 30.6471 44.6257 30.6472C44.6186 30.6473 44.6117 30.6497 44.6061 30.6541C44.6005 30.6586 44.5965 30.6647 44.5948 30.6717C44.593 30.6786 44.5937 30.6859 44.5966 30.6924C45.9621 33.8549 45.9539 37.0106 44.5721 40.1593C44.5693 40.1641 44.5684 40.1697 44.5695 40.175C44.5706 40.1803 44.5736 40.1851 44.5781 40.1885C44.5825 40.1918 44.5881 40.1936 44.5938 40.1935C44.5996 40.1933 44.6051 40.1913 44.6095 40.1877C46.4734 38.7809 48.178 37.2018 49.7232 35.4504C49.7338 35.4385 49.7397 35.423 49.7397 35.4069C49.7397 35.3907 49.7338 35.375 49.7232 35.3627Z" fill="url(#paint8_linear_251_782)"/>
<path d="M9.00331 29.0788L7.17845 27.6836C6.63494 27.268 5.85747 27.3718 5.44193 27.9153L5.37772 27.9992C4.96218 28.5427 5.06592 29.3202 5.60943 29.7358L7.43428 31.131C7.97779 31.5465 8.75526 31.4428 9.17081 30.8993L9.23501 30.8153C9.65055 30.2718 9.54682 29.4943 9.00331 29.0788Z" fill="url(#paint9_linear_251_782)"/>
<path d="M61.3066 27.6866L59.4915 29.0946C58.9515 29.5134 58.8533 30.2908 59.2721 30.8308L59.3385 30.9164C59.7574 31.4564 60.5348 31.5546 61.0748 31.1357L62.8899 29.7278C63.4299 29.3089 63.5281 28.5316 63.1092 27.9915L63.0429 27.906C62.624 27.366 61.8466 27.2677 61.3066 27.6866Z" fill="url(#paint10_linear_251_782)"/>
<path d="M39.9224 35.4014C39.9224 36.9056 39.3248 38.3483 38.2611 39.412C37.1974 40.4757 35.7548 41.0732 34.2505 41.0732C32.7462 41.0732 31.3035 40.4757 30.2399 39.412C29.1762 38.3483 28.5786 36.9056 28.5786 35.4014C28.5786 33.8971 29.1762 32.4544 30.2399 31.3907C31.3035 30.3271 32.7462 29.7295 34.2505 29.7295C35.7548 29.7295 37.1974 30.3271 38.2611 31.3907C39.3248 32.4544 39.9224 33.8971 39.9224 35.4014ZM37.3288 35.4014C37.3288 34.585 37.0045 33.802 36.4272 33.2247C35.8499 32.6474 35.0669 32.3231 34.2505 32.3231C33.4341 32.3231 32.6511 32.6474 32.0738 33.2247C31.4965 33.802 31.1722 34.585 31.1722 35.4014C31.1722 36.2178 31.4965 37.0008 32.0738 37.578C32.6511 38.1553 33.4341 38.4796 34.2505 38.4796C35.0669 38.4796 35.8499 38.1553 36.4272 37.578C37.0045 37.0008 37.3288 36.2178 37.3288 35.4014Z" fill="url(#paint11_linear_251_782)"/>
<path d="M33.5708 35.5328C33.9959 35.5328 34.3404 35.1882 34.3404 34.7632C34.3404 34.3382 33.9959 33.9937 33.5708 33.9937C33.1458 33.9937 32.8013 34.3382 32.8013 34.7632C32.8013 35.1882 33.1458 35.5328 33.5708 35.5328Z" fill="url(#paint12_linear_251_782)"/>
<path d="M38.1896 51.823C30.6589 53.2899 23.1991 50.2207 17.446 45.5543C17.1186 45.2879 16.9067 45.0352 16.8105 44.7963C16.3915 43.7612 17.4163 42.8034 18.4463 43.136C18.6019 43.1867 18.7935 43.3049 19.0212 43.4905C21.4601 45.4748 24.1435 47.0453 27.0714 48.202C35.1848 51.4079 42.9759 48.6738 49.4521 43.5201C51.0995 42.2079 52.6812 44.2291 51.1846 45.4486C47.4231 48.5127 42.9823 50.8897 38.1896 51.823Z" fill="url(#paint13_linear_251_782)"/>
<path d="M56.2134 47.4012C55.9079 47.2568 55.7571 47.1086 55.9363 46.7696C55.9561 46.7326 55.9849 46.7055 56.0227 46.6884C56.3849 46.5169 58.1238 45.8285 58.2282 45.5462C58.4904 44.833 58.7473 44.118 58.9991 43.4012C59.1254 43.039 59.4967 42.9643 59.6411 43.36C59.9186 44.1145 60.1911 44.8686 60.4583 45.6223C60.4677 45.648 60.4823 45.6716 60.5011 45.6918C60.5199 45.7119 60.5426 45.7282 60.5679 45.7396C61.2331 46.0361 61.8948 46.3321 62.5531 46.6278C62.8702 46.7696 62.8985 47.1924 62.5685 47.3484C61.9197 47.6534 61.2661 47.9551 60.6079 48.2533C60.5691 48.2704 60.5343 48.2952 60.5055 48.3263C60.4767 48.3573 60.4545 48.3939 60.4403 48.4337C60.1919 49.1247 59.9397 49.8307 59.6836 50.5517C59.556 50.91 59.1886 51.1073 59.0223 50.6509C58.7473 49.8947 58.4766 49.1427 58.2102 48.3951C58.1988 48.3633 58.181 48.3343 58.1579 48.3097C58.1349 48.2851 58.1071 48.2654 58.0761 48.252C57.4488 47.9753 56.8279 47.6917 56.2134 47.4012Z" fill="url(#paint14_linear_251_782)"/>
<path d="M3.0833 50.1483C2.48775 49.8595 2.44779 49.3581 3.06526 49.0848C3.87736 48.7256 4.68775 48.3608 5.49643 47.9904C5.60986 47.9388 5.66143 47.886 5.74651 47.797C5.77572 47.7669 5.79764 47.7321 5.81225 47.6926C6.16029 46.7318 6.5049 45.7702 6.84608 44.8077C7.02139 44.314 7.52799 44.1515 7.73424 44.7187C8.03588 45.5497 8.33451 46.3816 8.63014 47.2144C8.76807 47.6024 8.78096 47.8395 9.19088 48.02C10.0597 48.4016 10.9225 48.7943 11.7793 49.1982C11.818 49.2163 11.8489 49.2438 11.8721 49.2807C12.1183 49.6739 11.9624 49.9678 11.564 50.1534C10.7347 50.541 9.90158 50.9174 9.06455 51.2826C8.71779 51.4335 7.93662 53.9768 7.75615 54.4782C7.53959 55.0776 7.04588 54.9977 6.84994 54.4486C6.48514 53.4289 6.13322 52.4106 5.72459 51.4077C5.7074 51.3656 5.67776 51.3355 5.63565 51.3174C4.77627 50.9453 3.92549 50.5556 3.0833 50.1483Z" fill="url(#paint15_linear_251_782)"/>
<defs>
<linearGradient id="paint0_linear_251_782" x1="34.2517" y1="0" x2="34.2517" y2="16.6953" gradientUnits="userSpaceOnUse">
<stop stop-color="#B381E0"/>
<stop offset="1" stop-color="#5FABD9"/>
</linearGradient>
<linearGradient id="paint1_linear_251_782" x1="13.1838" y1="8.28701" x2="20.548" y2="20.4948" gradientUnits="userSpaceOnUse">
<stop stop-color="#B381E0"/>
<stop offset="1" stop-color="#5FABD9"/>
</linearGradient>
<linearGradient id="paint2_linear_251_782" x1="55.3205" y1="8.28379" x2="47.9536" y2="20.496" gradientUnits="userSpaceOnUse">
<stop stop-color="#B381E0"/>
<stop offset="1" stop-color="#5FABD9"/>
</linearGradient>
<linearGradient id="paint3_linear_251_782" x1="24.8032" y1="8.22524" x2="27.6975" y2="17.6334" gradientUnits="userSpaceOnUse">
<stop stop-color="#B381E0"/>
<stop offset="1" stop-color="#5FABD9"/>
</linearGradient>
<linearGradient id="paint4_linear_251_782" x1="43.698" y1="8.22408" x2="40.8029" y2="17.6347" gradientUnits="userSpaceOnUse">
<stop stop-color="#B381E0"/>
<stop offset="1" stop-color="#5FABD9"/>
</linearGradient>
<linearGradient id="paint5_linear_251_782" x1="7.30131" y1="17.7418" x2="14.1517" y2="24.9103" gradientUnits="userSpaceOnUse">
<stop stop-color="#B381E0"/>
<stop offset="1" stop-color="#5FABD9"/>
</linearGradient>
<linearGradient id="paint6_linear_251_782" x1="61.1963" y1="17.7469" x2="54.353" y2="24.908" gradientUnits="userSpaceOnUse">
<stop stop-color="#B381E0"/>
<stop offset="1" stop-color="#5FABD9"/>
</linearGradient>
<linearGradient id="paint7_linear_251_782" x1="34.2488" y1="18.6265" x2="34.2488" y2="34.0722" gradientUnits="userSpaceOnUse">
<stop stop-color="#B381E0"/>
<stop offset="1" stop-color="#5FABD9"/>
</linearGradient>
<linearGradient id="paint8_linear_251_782" x1="34.2509" y1="24.0444" x2="34.2509" y2="46.7439" gradientUnits="userSpaceOnUse">
<stop stop-color="#B381E0"/>
<stop offset="1" stop-color="#5FABD9"/>
</linearGradient>
<linearGradient id="paint9_linear_251_782" x1="8.09088" y1="28.3812" x2="6.52185" y2="30.4334" gradientUnits="userSpaceOnUse">
<stop stop-color="#B381E0"/>
<stop offset="1" stop-color="#5FABD9"/>
</linearGradient>
<linearGradient id="paint10_linear_251_782" x1="60.399" y1="28.3906" x2="61.9823" y2="30.4318" gradientUnits="userSpaceOnUse">
<stop stop-color="#B381E0"/>
<stop offset="1" stop-color="#5FABD9"/>
</linearGradient>
<linearGradient id="paint11_linear_251_782" x1="34.2505" y1="29.7295" x2="34.2505" y2="41.0732" gradientUnits="userSpaceOnUse">
<stop stop-color="#B381E0"/>
<stop offset="1" stop-color="#5FABD9"/>
</linearGradient>
<linearGradient id="paint12_linear_251_782" x1="33.5708" y1="33.9937" x2="33.5708" y2="35.5328" gradientUnits="userSpaceOnUse">
<stop stop-color="#B381E0"/>
<stop offset="1" stop-color="#5FABD9"/>
</linearGradient>
<linearGradient id="paint13_linear_251_782" x1="34.2491" y1="43.0688" x2="34.2491" y2="52.1923" gradientUnits="userSpaceOnUse">
<stop stop-color="#B381E0"/>
<stop offset="1" stop-color="#5FABD9"/>
</linearGradient>
<linearGradient id="paint14_linear_251_782" x1="59.3316" y1="43.0947" x2="59.3316" y2="50.9166" gradientUnits="userSpaceOnUse">
<stop stop-color="#B381E0"/>
<stop offset="1" stop-color="#5FABD9"/>
</linearGradient>
<linearGradient id="paint15_linear_251_782" x1="7.30469" y1="44.3599" x2="7.30469" y2="54.8951" gradientUnits="userSpaceOnUse">
<stop stop-color="#B381E0"/>
<stop offset="1" stop-color="#5FABD9"/>
</linearGradient>
</defs>
</svg>
