<svg width="51" height="51" viewBox="0 0 51 51" fill="none" xmlns="http://www.w3.org/2000/svg">
<path d="M24.8087 0H26.2032C39.8278 0.463184 50.5328 11.2041 51 24.8087V26.1534C50.5757 39.8916 39.7192 50.5557 26.0917 51H24.9711C20.405 50.8718 16.2171 49.6669 12.4073 47.3852C11.7878 47.0136 11.988 46.0335 12.7341 45.9976C12.8921 45.9903 13.1026 46.063 13.3656 46.2158C16.6733 48.1342 20.2443 49.2167 24.0786 49.463C24.0842 49.4635 24.0899 49.4623 24.0949 49.4597C24.0999 49.457 24.104 49.453 24.1068 49.4481C24.1096 49.4432 24.111 49.4376 24.1108 49.432C24.1105 49.4263 24.1087 49.4209 24.1055 49.4162C19.8771 43.088 13.1156 39.1843 5.50541 38.6594C5.49689 38.6587 5.48835 38.6605 5.48077 38.6645C5.47319 38.6684 5.46687 38.6744 5.46251 38.6818C5.45816 38.6891 5.45596 38.6975 5.45614 38.7061C5.45633 38.7146 5.4589 38.723 5.46357 38.7301C6.82557 40.7681 8.45717 42.5671 10.3584 44.127C11.1363 44.7654 10.2608 45.9707 9.3573 45.2316C3.52219 40.4544 0.320742 33.7138 0 26.1913V24.8217C0.482109 11.2329 11.1323 0.445254 24.8087 0ZM5.4835 12.3376C13.013 11.8426 19.9617 7.904 24.1085 1.56785C24.1116 1.56346 24.1133 1.55826 24.1136 1.55288C24.1138 1.54751 24.1124 1.54218 24.1097 1.53755C24.107 1.53292 24.1029 1.52917 24.0981 1.52677C24.0933 1.52437 24.0879 1.52342 24.0826 1.52402C16.4136 2.08582 9.72088 5.92178 5.46158 12.2978C5.45897 12.3018 5.45748 12.3065 5.45729 12.3113C5.45709 12.3161 5.45819 12.3208 5.46047 12.325C5.46274 12.3291 5.46611 12.3325 5.47017 12.3347C5.47424 12.337 5.47886 12.338 5.4835 12.3376ZM33.5186 8.26559C34.0654 8.63514 33.7228 9.61928 33.0345 9.57943C32.8498 9.56881 32.6314 9.47518 32.379 9.29854C31.027 8.35557 29.7772 7.29705 28.6297 6.12299C28.6257 6.11844 28.6203 6.11543 28.6143 6.11448C28.6084 6.11352 28.6023 6.11468 28.5971 6.11775C28.5919 6.12083 28.5879 6.12562 28.5859 6.13131C28.5838 6.13699 28.5838 6.14321 28.5859 6.14889C29.8855 10.7967 29.8871 15.4444 28.5909 20.0922C28.5888 20.0987 28.5891 20.1058 28.5916 20.1121C28.5941 20.1185 28.5987 20.1238 28.6046 20.1272C28.6105 20.1306 28.6175 20.1318 28.6242 20.1307C28.631 20.1296 28.6371 20.1262 28.6417 20.1211C32.0038 16.6766 36.0227 14.3557 40.6984 13.1584C40.7062 13.1565 40.7132 13.1521 40.7182 13.1457C40.7232 13.1394 40.7259 13.1316 40.7259 13.1235C40.7259 13.1155 40.7232 13.1077 40.7182 13.1013C40.7132 13.095 40.7062 13.0906 40.6984 13.0887C39.0668 12.6809 37.488 12.1105 35.962 11.3774C35.705 11.2545 35.5337 11.1363 35.448 11.0228C35.1312 10.6044 35.451 9.91811 35.9709 9.86531C36.127 9.84937 36.3246 9.89885 36.5636 10.0137C39.3912 11.3644 42.3692 12.1381 45.4976 12.3346C45.5036 12.3349 45.5096 12.3335 45.5149 12.3305C45.5202 12.3276 45.5245 12.3233 45.5275 12.318C45.5305 12.3128 45.532 12.3068 45.5318 12.3008C45.5316 12.2948 45.5298 12.2889 45.5265 12.2838C41.304 5.9407 34.5256 2.04697 26.9244 1.531C26.9187 1.53051 26.9129 1.53168 26.9078 1.53437C26.9027 1.53707 26.8985 1.54119 26.8956 1.54626C26.8927 1.55134 26.8912 1.55717 26.8914 1.56309C26.8916 1.56902 26.8933 1.57481 26.8965 1.5798C28.6623 4.25 30.8696 6.47859 33.5186 8.26559ZM25.5707 23.8206C28.8668 17.0173 28.8837 9.15709 25.5289 2.37768C25.526 2.37205 25.5216 2.36734 25.5162 2.36409C25.5107 2.36083 25.5045 2.35916 25.4982 2.35927C25.4919 2.35937 25.4857 2.36124 25.4804 2.36467C25.4751 2.3681 25.4708 2.37295 25.4681 2.37867C22.1093 9.16605 22.1252 17.0711 25.4661 23.8644C25.4691 23.8708 25.4744 23.8758 25.481 23.8786C25.4876 23.8813 25.4951 23.8816 25.502 23.8794C25.5339 23.8694 25.5568 23.8498 25.5707 23.8206ZM22.3314 20.0773C22.3354 20.1018 22.349 20.1238 22.3723 20.143C22.3767 20.1466 22.3821 20.1486 22.3878 20.1489C22.3934 20.1492 22.399 20.1477 22.4038 20.1446C22.4085 20.1415 22.4122 20.137 22.4142 20.1317C22.4162 20.1264 22.4166 20.1206 22.4151 20.1151C21.1102 15.4547 21.1112 10.794 22.4181 6.13295C22.4195 6.12727 22.4191 6.12127 22.4168 6.11588C22.4145 6.11048 22.4105 6.10597 22.4055 6.10304C22.4004 6.1001 22.3945 6.09891 22.3887 6.09964C22.3829 6.10036 22.3775 6.10296 22.3733 6.10705C19.0018 9.55221 14.9763 11.8801 10.2966 13.0907C10.2892 13.0929 10.2827 13.0974 10.2781 13.1036C10.2735 13.1098 10.271 13.1173 10.271 13.125C10.271 13.1328 10.2735 13.1403 10.2781 13.1465C10.2827 13.1527 10.2892 13.1572 10.2966 13.1594C11.7868 13.5379 13.2295 14.0429 14.6246 14.6745C15.6925 15.1576 15.1137 16.4804 14.015 16.0212C11.2429 14.8617 8.53154 14.1127 5.52932 13.9204C5.51895 13.9199 5.50861 13.9222 5.49946 13.9271C5.49031 13.932 5.48272 13.9394 5.47754 13.9483C5.47236 13.9572 5.4698 13.9673 5.47015 13.9775C5.4705 13.9877 5.47374 13.9976 5.47951 14.0061C9.72586 20.2874 16.5083 24.221 24.0776 24.7111C24.0834 24.7114 24.0893 24.7102 24.0944 24.7074C24.0996 24.7047 24.1039 24.7006 24.1069 24.6955C24.1099 24.6905 24.1114 24.6847 24.1114 24.6788C24.1113 24.673 24.1096 24.6672 24.1065 24.6623C22.2531 21.8726 19.9398 19.5693 17.1667 17.7524C16.2662 17.1627 17.0511 15.9086 17.9954 16.5192C19.5546 17.5273 21 18.7133 22.3314 20.0773ZM45.5135 13.9045C37.9771 14.4374 31.0871 18.3152 26.9164 24.6394C26.9116 24.6468 26.909 24.6554 26.9088 24.6642C26.9086 24.673 26.9108 24.6817 26.9152 24.6894C26.9197 24.697 26.9261 24.7033 26.9339 24.7074C26.9417 24.7116 26.9505 24.7136 26.9593 24.7131C34.5505 24.1772 41.3229 20.2715 45.5464 13.9613C45.5502 13.9554 45.5523 13.9487 45.5525 13.9417C45.5527 13.9348 45.551 13.9279 45.5476 13.922C45.5441 13.9161 45.5391 13.9113 45.5331 13.9082C45.5271 13.9051 45.5203 13.9038 45.5135 13.9045ZM4.04713 14.7472C0.644473 21.5096 0.668379 29.4774 4.02621 36.2379C4.02941 36.2444 4.03438 36.2499 4.04054 36.2537C4.0467 36.2576 4.05381 36.2596 4.06107 36.2596C4.06833 36.2596 4.07545 36.2576 4.08161 36.2537C4.08777 36.2499 4.09273 36.2444 4.09594 36.2379C7.46771 29.4087 7.44879 21.5863 4.08697 14.7472C4.08522 14.7434 4.08242 14.7401 4.07889 14.7379C4.07536 14.7356 4.07125 14.7344 4.06705 14.7344C4.06285 14.7344 4.05875 14.7356 4.05521 14.7379C4.05168 14.7401 4.04888 14.7434 4.04713 14.7472ZM46.8931 14.7731C43.5522 21.6182 43.5363 29.4067 46.9001 36.2349C46.9034 36.2414 46.9085 36.2468 46.9147 36.2506C46.921 36.2544 46.9281 36.2564 46.9354 36.2564C46.9427 36.2564 46.9499 36.2544 46.9561 36.2506C46.9624 36.2468 46.9674 36.2414 46.9708 36.2349C50.3237 29.4605 50.3525 21.5495 46.9708 14.7721C46.9673 14.7647 46.9617 14.7585 46.9548 14.7542C46.9478 14.7499 46.9398 14.7477 46.9316 14.7478C46.9235 14.7479 46.9155 14.7503 46.9087 14.7548C46.9019 14.7593 46.8964 14.7656 46.8931 14.7731ZM19.2206 25.4592C14.5509 24.2479 10.5377 21.9194 7.18084 18.4736C7.14432 18.4357 7.13104 18.4427 7.141 18.4945C7.18781 18.7405 7.28941 19.0443 7.33324 19.2216C8.43691 23.6529 8.37549 28.0659 7.14896 32.4607C7.14674 32.4686 7.14719 32.477 7.15026 32.4846C7.15333 32.4921 7.15884 32.4985 7.16592 32.5026C7.173 32.5067 7.18125 32.5084 7.18936 32.5073C7.19747 32.5062 7.20499 32.5024 7.21072 32.4966C10.5065 29.1238 14.4334 26.8241 18.9915 25.5976C19.0583 25.5797 19.2216 25.5857 19.2515 25.5388C19.2781 25.4983 19.2678 25.4718 19.2206 25.4592ZM32.0135 25.5996C36.5703 26.8255 40.4965 29.1251 43.7923 32.4986C43.7975 32.5039 43.8044 32.5074 43.8119 32.5084C43.8193 32.5094 43.8269 32.5079 43.8334 32.5041C43.8399 32.5004 43.845 32.4945 43.8478 32.4876C43.8506 32.4806 43.8511 32.4729 43.849 32.4657C42.5588 27.8192 42.5591 23.1728 43.85 18.5263C43.8706 18.4513 43.8537 18.4413 43.7992 18.4965C40.4175 21.8702 36.5586 24.1961 31.9049 25.4293C31.8504 25.4439 31.8043 25.4522 31.7664 25.4542C31.7213 25.4562 31.7103 25.4768 31.7336 25.5159C31.7824 25.5976 31.9328 25.5777 32.0135 25.5996ZM24.0766 26.2929C16.5601 26.765 9.57047 30.7514 5.44963 37.0627C5.44739 37.0663 5.44615 37.0704 5.44604 37.0747C5.44594 37.0789 5.44699 37.0831 5.44906 37.0867C5.45113 37.0904 5.45415 37.0933 5.45777 37.0952C5.46139 37.0971 5.46547 37.0979 5.46955 37.0975C13.0707 36.5606 19.8711 32.6798 24.1045 26.3407C24.1076 26.3359 24.1094 26.3303 24.1096 26.3246C24.1097 26.3188 24.1083 26.3131 24.1054 26.3081C24.1025 26.3032 24.0982 26.2991 24.0932 26.2964C24.0881 26.2937 24.0823 26.2925 24.0766 26.2929ZM26.9085 26.3586C28.6437 28.9571 30.7707 31.1293 33.2895 32.8751C33.916 33.3094 33.5454 34.3443 32.7735 34.2238C32.628 34.2012 32.4464 34.1126 32.2286 33.9578C30.9377 33.0447 29.739 32.0198 28.6327 30.8829C28.6291 30.8789 28.6243 30.8763 28.619 30.8755C28.6137 30.8747 28.6083 30.8758 28.6036 30.8785C28.5989 30.8813 28.5952 30.8856 28.5931 30.8907C28.591 30.8958 28.5905 30.9015 28.5919 30.9068C29.8888 35.5619 29.8851 40.2153 28.5809 44.8671C28.5793 44.873 28.5797 44.8793 28.582 44.885C28.5844 44.8908 28.5886 44.8955 28.5939 44.8986C28.5993 44.9017 28.6055 44.9029 28.6116 44.9021C28.6177 44.9012 28.6234 44.8984 28.6277 44.8939C31.9241 41.5179 35.8627 39.2126 40.4434 37.9781C40.539 37.9522 40.6363 37.9326 40.7353 37.9193C40.7437 37.9184 40.7517 37.9146 40.7576 37.9084C40.7635 37.9022 40.767 37.8942 40.7674 37.8856C40.7679 37.8771 40.7654 37.8687 40.7602 37.8619C40.755 37.8551 40.7476 37.8504 40.7392 37.8486C38.9476 37.3977 37.2307 36.7662 35.5884 35.954C34.6591 35.4938 35.2747 34.1521 36.2977 34.6491C39.1989 36.0556 42.2676 36.8694 45.5036 37.0905C45.5109 37.0911 45.5182 37.0896 45.5246 37.0861C45.5311 37.0827 45.5365 37.0775 45.5401 37.0711C45.5438 37.0648 45.5455 37.0575 45.5452 37.0502C45.5449 37.0429 45.5426 37.0358 45.5384 37.0298C41.3399 30.7634 34.5774 26.8288 27.0439 26.2859C26.9842 26.2813 26.941 26.2912 26.9145 26.3158C26.9084 26.3213 26.9045 26.3287 26.9034 26.3366C26.9023 26.3445 26.9041 26.3523 26.9085 26.3586ZM25.5149 27.1256C25.5129 27.1217 25.5097 27.1184 25.5059 27.1161C25.5021 27.1139 25.4977 27.1127 25.4932 27.1128C25.4888 27.1129 25.4844 27.1143 25.4807 27.1167C25.477 27.1192 25.474 27.1226 25.4721 27.1266C22.1262 33.9419 22.1043 41.7981 25.4651 48.6114C25.4681 48.6177 25.4728 48.6231 25.4787 48.6268C25.4846 48.6306 25.4915 48.6326 25.4985 48.6326C25.5055 48.6326 25.5124 48.6306 25.5183 48.6268C25.5242 48.6231 25.5289 48.6177 25.5319 48.6114C28.8718 41.8549 28.9027 33.8821 25.5149 27.1256ZM22.3494 44.869C22.3548 44.8751 22.3622 44.8791 22.3703 44.8804C22.3784 44.8816 22.3867 44.8801 22.3938 44.8761C22.4008 44.872 22.4063 44.8656 22.4093 44.858C22.4123 44.8504 22.4126 44.842 22.4101 44.8342C21.1132 40.1917 21.1129 35.5486 22.4091 30.9048C22.4257 30.845 22.4121 30.8371 22.3683 30.8809C18.9268 34.2796 15.051 36.6194 10.3335 37.8366C10.3246 37.8391 10.3168 37.8443 10.3113 37.8516C10.3057 37.8589 10.3027 37.8678 10.3027 37.877C10.3027 37.8861 10.3057 37.895 10.3113 37.9023C10.3168 37.9096 10.3246 37.9149 10.3335 37.9173C14.9866 39.1286 18.9919 41.4458 22.3494 44.869ZM45.4906 38.6594C37.9303 39.2102 31.0821 43.0492 26.8935 49.4312C26.8912 49.4344 26.8899 49.4383 26.8897 49.4422C26.8896 49.4462 26.8905 49.4502 26.8925 49.4536C26.8945 49.4571 26.8974 49.4599 26.901 49.4617C26.9045 49.4636 26.9085 49.4644 26.9125 49.464C34.5037 48.9869 41.307 45.0314 45.5265 38.7212C45.5306 38.715 45.5329 38.7077 45.5331 38.7003C45.5333 38.6929 45.5314 38.6856 45.5277 38.6791C45.524 38.6727 45.5185 38.6675 45.512 38.664C45.5054 38.6605 45.498 38.6589 45.4906 38.6594Z" fill="url(#paint0_linear_251_754)"/>
<defs>
<linearGradient id="paint0_linear_251_754" x1="25.5" y1="0" x2="25.5" y2="51" gradientUnits="userSpaceOnUse">
<stop stop-color="#B381E0"/>
<stop offset="1" stop-color="#5FABD9"/>
</linearGradient>
</defs>
</svg>
